<?xml version="1.0" encoding="UTF-8"?>
<svg width="512" height="512" viewBox="0 0 512 512" fill="none" xmlns="http://www.w3.org/2000/svg">
    <rect width="512" height="512" fill="#3B82F6"/>
    <path d="M256 128C317.856 128 368 178.144 368 240C368 301.856 317.856 352 256 352C194.144 352 144 301.856 144 240C144 178.144 194.144 128 256 128ZM256 160C211.888 160 176 195.888 176 240C176 284.112 211.888 320 256 320C300.112 320 336 284.112 336 240C336 195.888 300.112 160 256 160ZM248 192H264V288H248V192Z" fill="white"/>
</svg>